<svg id="Layer_1" data-name="Layer 1" xmlns="http://www.w3.org/2000/svg" viewBox="0 0 252.5 305.4"><title>cartoon-svg</title><path d="M421,203.1c0.8,3.2-2.4,6.7-5.4,5.9s-3.4-2.4-4.1-4.4a20.8,20.8,0,0,1-.7-6.4c0-5.4.3-11.5,4.1-15" transform="translate(-354.5 -128)" fill="none" stroke="#1e1a1a" stroke-miterlimit="10"/><path d="M435.9,151a120.6,120.6,0,0,1,61.9-22.2c22.6-1.5,46.6,4,63.2,19.3s23.1,36.3,27.7,57.3,7.5,43.6,4.5,65.3-12.1,43.1-28.2,58.2c-6,5.6-12.8,10.2-19.2,15.4-26,21.1-43.1,50.6-61.5,78.5-3,4.5-6.7,9.5-12.1,10.1s-10.7-3.8-14.4-8.2-8.5-11.5-8-18.3c7.3-3.4,17-.5,21.3,6.3-0.9-1.5,9.5-15.1,10.7-17l6.1-8.8c3.1-4.5,3.1-3.6.5-7.6s-7.3-8.2-9.7-13.7a72.6,72.6,0,0,1-5.1-17.5c-0.4-2.5-.9-5.2-2.4-7.3a18.1,18.1,0,0,0-4.7-4,92.8,92.8,0,0,1-36.1-49.1" transform="translate(-354.5 -128)" fill="none" stroke="#0c0202" stroke-miterlimit="10"/><path d="M527,257c-1.9,3.5-6.2,4.8-9.1,7.4-0.9.9-1.7,1.9-2.6,2.8a29.7,29.7,0,0,1-4.8,4c-12,8.3-27.3,11.1-41.8,9.4-35.7-4.2-61.8-28.8-85.8-53.1a33.1,33.1,0,0,0-8.2-6.6c-3.1-1.6-7-2.2-10.2-.8s-5.3,5.3-7,8.5a16.1,16.1,0,0,0-2.5,8.1c0.1,2.9,1.6,5.8,4.3,6.9s5,0,5.7-2.2c-1.5,2.5,1.2,5.6,4,6.2s5.8-.4,8.6-0.2c4.5,0.4,8.2,3.5,11.6,6.5C413.5,275,440,296.2,471.8,301c7,1,14.3,1.2,20.9-1.1a58.1,58.1,0,0,0,9.1-4.4l16.5-9.2c6.3-3.5,13-7.4,16.2-13.9" transform="translate(-354.5 -128)" fill="none" stroke="#161111" stroke-miterlimit="10"/><path d="M438.1,303.5a81.4,81.4,0,0,1-35.6,13.9c-3.3.4-7,.8-9.5,3.1a11.2,11.2,0,0,0,11.1,3.9c-0.9,1.3-2.8,1.4-4.4,1.2s-3.2-.6-4.7,0-2.2,2.9-1,3.8a3.2,3.2,0,0,0,1.6.4,78.9,78.9,0,0,0,8.4.2,26.6,26.6,0,0,0-8.8.6,2.7,2.7,0,0,0-1.8,1.1c-0.8,1.5,1.5,2.8,3.2,3.1,8,1.2,16.5,2.4,24.1-.4,3.9-1.4,7.4-3.9,10.8-6.3L447,317.3" transform="translate(-354.5 -128)" fill="none" stroke="#050404" stroke-miterlimit="10"/><path d="M504.6,373.5a4.6,4.6,0,0,0,2.1-1.2,149.6,149.6,0,0,0,19.3-20c2-2.5,3.9-5.3,4-8.5q-17.8.6-35.7,0.7c-0.3,8.1,2.7,15.9,6.7,22.9A51.3,51.3,0,0,0,504.6,373.5Z" transform="translate(-354.5 -128)" fill="none" stroke="#110d0d" stroke-miterlimit="10"/><path d="M572.1,320.7c13.7,0.9,27.5-10.2,34.6-22.9-2.5,3.2-3.8,6.3,0,0-2.5,3.2-9.2,4.5-12.8,6s-8.9,3.8-13.7,4.6" transform="translate(-354.5 -128)" fill="none" stroke="#191616" stroke-miterlimit="10" stroke-width="0.75"/><path d="M544.5,168.5c0.7,4-1.2,8.7,1.1,12.1a9.1,9.1,0,0,0,2.8,2.4,24.7,24.7,0,0,0,14.1,3.7,6.6,6.6,0,0,0,2.8-.6c2.2-1.2,2.7-4.1,2.8-6.6a65.3,65.3,0,0,0-.8-12.5" transform="translate(-354.5 -128)" fill="none" stroke="#141313" stroke-miterlimit="10"/><path d="M484.9,176.9c-1-7.4-1.8-15.5,2.4-21.6,3-4.4,8-6.9,13-8.7a37.1,37.1,0,0,1,14-2.6c4.8,0.2,9.6,1.9,12.9,5.4s4.4,7.3,5.5,11.4c2.2,8.1,3.2,17.8-2.7,23.8-3.3,3.4-8.1,4.8-12.6,6.1a9.7,9.7,0,0,1-4,.5,3.3,3.3,0,0,1-2.9-2.5,18.1,18.1,0,0,0,11.9-11,30.7,30.7,0,0,0,1.4-10.9,22.9,22.9,0,0,0-1.3-8.5c-3-7.4-12.1-10.3-20.1-9.9-4.4.2-8.9,1.2-12.3,3.9-6.4,5.3-6.7,15-5.4,23.2a3.6,3.6,0,0,0,.6,1.7,3.8,3.8,0,0,0,2,1A73.4,73.4,0,0,1,512,191" transform="translate(-354.5 -128)" fill="none" stroke="#161313" stroke-miterlimit="10"/><path d="M504.5,393.4c4.5,0.5,9.2,1.6,12.8,4.3s5.9,7.7,4.5,12a5,5,0,0,1-.9,1.7,10.8,10.8,0,0,1-2.8,1.9,8.2,8.2,0,0,0-3.9,5.6,5.9,5.9,0,0,0,2.9,6,9.8,9.8,0,0,0,3.8.8c3.4,0.3,6.9.4,9.9-1.1,5.3-2.7,7-9.4,8-15.3s1.7-12.7-1.2-18.1a14.6,14.6,0,0,0-11-7.3c-2.6-.3-5.3.2-8,0s-5.5-1.1-6.9-3.4" transform="translate(-354.5 -128)" fill="none" stroke="#110c0c" stroke-miterlimit="10"/><path d="M421,204v32.9c0,4.8,0,9.7,1.3,14.3s3.8,9,3.6,13.8" transform="translate(-354.5 -128)" fill="none" stroke="#110c0c" stroke-miterlimit="10"/><path d="M484.1,203.9a52.8,52.8,0,0,0,24.8,20.3c3.5,1.3,7.8,2,10.3-.9a10.4,10.4,0,0,0,2-4.6c2.2-9.7-.4-20.6-6.6-27.8" transform="translate(-354.5 -128)" fill="none" stroke="#070404" stroke-miterlimit="10"/><path d="M463.8,207.8" transform="translate(-354.5 -128)" fill="none" stroke="#070404" stroke-miterlimit="10"/><path d="M484.7,177.5c-17.2-2.7-32.3,1.3-44,15-9.5,11.1-14.7,25.8-15.6,40.6-0.3,4-.1,8.3,2.3,11.4,4.2,5.7,13.4,4.3,18.2-.8s6.4-12.5,7.7-19.5l2.1-10.9" transform="translate(-354.5 -128)" fill="none" stroke="#070404" stroke-miterlimit="10"/><path d="M498.6,219.2a57.6,57.6,0,0,1-.9,9.7c-0.9,4.9-2.5,9.9-6,13.3a23,23,0,0,1-9.2,5.1,19.7,19.7,0,0,1-6.9,1.2c-4.5-.2-8.6-2.9-11.6-6.3s-4.9-7.6-6.9-11.7l-3.2-6.8" transform="translate(-354.5 -128)" fill="none" stroke="#110c0c" stroke-miterlimit="10"/><path d="M498.6,219.2" transform="translate(-354.5 -128)" fill="none" stroke="#110c0c" stroke-miterlimit="10"/><path d="M480.9,206.2c-3,2-6.5,3-9.9,4.1l-5.1,1.5c-3.5,1-7.2,2.1-10.9,1.4,0.5,0.8,0,5.7.7,6.4a5.9,5.9,0,0,0,2.8,1.9c1.8,0.4,3.8-.8,4.8-2.4a14.5,14.5,0,0,0,1.7-5.7,10.8,10.8,0,0,0,1.9,5.4c2.3,0.5,5.1.7,6.4-1.4a6.7,6.7,0,0,0,.7-3.2l0.3-5.6c-0.6,3.6,3,7.2,6.3,6.4a3,3,0,0,0,2.3-2C483.2,211.6,479.7,206.7,480.9,206.2Z" transform="translate(-354.5 -128)" fill="none" stroke="#050101" stroke-miterlimit="10"/><path d="M485.9,245.9c-1-8,1.9-15.9,4.7-23.1a10.8,10.8,0,0,1,2.3-4c1.6-1.4,2,.1,3.7-1.1" transform="translate(-354.5 -128)" fill="none" stroke="#070606" stroke-miterlimit="10"/><ellipse cx="466.6" cy="196.5" rx="20" ry="8.2" transform="translate(-378.6 -56.3) rotate(-8.6)" fill="#0a0101" stroke="#0a0707" stroke-miterlimit="10"/><path d="M437.1,196.9a11.3,11.3,0,0,1-9.4-.3,24.6,24.6,0,0,1-7.6-6,33.2,33.2,0,0,1-3.6-4.5,22.3,22.3,0,0,1-2.5-18.6,22.8,22.8,0,0,1,12.8-13.9c5.6-2.4,12-2.4,18.1-1.7s9.7,1.7,13.2,4.8c5.4,4.9,5.8,13.1,5.7,20.4a52.3,52.3,0,0,0-9.5,4.6,27.4,27.4,0,0,0-5.6-20.5,14.1,14.1,0,0,0-2.5-2.5c-2.4-1.8-5.5-2.4-8.5-3a33.6,33.6,0,0,0-8.8-.8,16.8,16.8,0,0,0-14.1,10.8,1.2,1.2,0,0,0,0,1.2" transform="translate(-354.5 -128)" fill="none" stroke="#070303" stroke-miterlimit="10"/><path d="M490.1,383.6a26,26,0,0,1,13.9-10" transform="translate(-354.5 -128)" fill="none" stroke="#1c1717" stroke-miterlimit="10"/></svg>