<svg class="svg" id="Layer_1" data-name="Layer 1" xmlns="http://www.w3.org/2000/svg" viewBox="0 0 601.3 473.1"><title>first-trial</title>
<g class="test"><path d="M449,593c-11.2-16.1-16.2-35.8-27.9-51.5-5.4-7.3-12.2-13.6-16.3-21.7s-4.9-18.9,1.3-25.5c5.7-.4,11,2.7,16.3,5,10.7,4.7,22.4,6.4,33.9,7.8a675,675,0,0,0,105.4,4.1c6.3,23,14.1,45,22.6,67.3a34,34,0,0,0-18.9,16c-8.2-13.7-14.3-28.5-20.4-43.2-2.2-5.3-4.4-10.7-5.1-16.3a525.2,525.2,0,0,1-92.2-2.6c4.8,17.7,14.5,33.6,24.1,49.3C462.6,580.9,453.6,585,449,593Z" transform="translate(-350.7 -270.3)" fill="none"/><path d="M581.9,411.4c-31.2,9.1-64.3-4.3-96.8-4.5a31.6,31.6,0,0,0-7.5-14.2c-5.3-5.7-12.4-9.2-19.4-12.2-4.9-2.1-18.8-5.5-21.4-10.5s7.5-20.8,9.4-25.8c3.6-9.5,7-19,11.2-28.2,8.1-17.6,19.7-34.6,36.9-43.3,3.1-1.6,7.2-2.8,9.9-.5s2.3,4.1,2.4,6.4a32.6,32.6,0,0,1-3.9,16.8l3.4-6.4c22-1.4,44,2.6,65.4,7.8,13.1,3.2,26.5,7,37,15.3,3.8-1.3,6.6-4.5,9.6-7.1s6.9-5,10.8-4.2c5.9,1.2,8.2,8.7,7.8,14.7a25.7,25.7,0,0,1-2.9,10.7c-1.6,2.8-3.8,5.3-5.9,7.8-8.7,10.8-13.6,23.8-19.9,36-2.8,5.4-8.1,10.8-7.8,16.7,0.4,8.2,4.4,14.9,2.7,23.5s-7.7,16.1-14.5,21.8-14.6,10.1-21.7,15.5a291.4,291.4,0,0,1,16.1-37.8" transform="translate(-350.7 -270.3)" fill="none" stroke="#3d2424" stroke-miterlimit="10"/><path d="M600.1,383.2c-5,6.6-11,12.9-12.5,21-0.3,1.7-.5,3.6-1.8,4.9a6.8,6.8,0,0,1-2.8,1.4" transform="translate(-350.7 -270.3)" fill="none" stroke="#3d2424" stroke-miterlimit="10"/><path d="M603.9,404.5l6.5,3.3L637.7,422a6.9,6.9,0,0,1,1.5,1,5.3,5.3,0,0,1,1.4,3.1,10.7,10.7,0,0,1-14.8,11.6c-2.2-1-4-2.6-6-4-6.9-4.8-16.1-6.1-21.8-12.2" transform="translate(-350.7 -270.3)" fill="none" stroke="#191313" stroke-miterlimit="10"/><path d="M639.9,422.4a49.8,49.8,0,0,1,23.1,23.3c2.4,5,3.9,10.9,2.2,16.2-1.1,3.4-3.4,6.2-5.7,9l-11.1,13.5c-1.6,1.9-3.3,4-5.7,4.9s-6.6.1-9.6-1.3a61.5,61.5,0,0,1-9.2-5,43,43,0,0,0,15.8-11.8,19.5,19.5,0,0,0,3.5-5.7,24.5,24.5,0,0,0,1-8.4,15.5,15.5,0,0,0-.8-6c-0.9-2.1-2.6-3.7-4.4-5.3l-9-8.2" transform="translate(-350.7 -270.3)" fill="none"/><path d="M485.1,406.9c1.7,5.5-.9,13.7,3.8,17.3s12.9,6.2,19.5,7,9.9,3.8,14.9,6l32.4,14.5c10.1,4.5,20.2,9.1,29.8,14.5,5.6,3.2,11,6.7,16.8,9.3s11.9,4.4,17.9,6.6c8.5,3.1,16.7,6.9,24.9,10.7L688.7,513c9,4.2,19.1,9.7,21,19.4-6.8-1.1-8,11-14.6,13.2a10.7,10.7,0,0,1-4,.3c-3.4-.2-6.9-0.9-9.4-3.1s-3.6-6.4-1.5-9l4.7,3.9c-4.9-2.1-7.8-7.2-12-10.4a38,38,0,0,0-8.5-4.5c-8.6-3.5-17.2-7.3-25.7-11q-37.8-16.2-75.4-32.9l-37.5-16.8L507,453.7c-5.5-2.5-11.4-3.5-16.7-6.3l-37.4-19.7" transform="translate(-350.7 -270.3)" fill="none" stroke="#282020" stroke-miterlimit="10"/><path d="M448.3,338.4c-14.4-1.6-28.7,2.6-42.5,6.8-9.8,2.9-19.8,6-27.5,12.7a58.3,58.3,0,0,0-6,6.4,116.3,116.3,0,0,0-8.2,10.8c-9.4,14.3-14.7,31.7-12.4,48.6,0.4,2.9,1,5.8,1.7,8.7a43.5,43.5,0,0,0,2.2,7.7,45.8,45.8,0,0,0,5.9,9.3,57.5,57.5,0,0,0,8.7,9.9,55.3,55.3,0,0,0,6.9,4.7c9.1,5.5,19.5,10,28.2,16.2,3.6,2.6,3,4.8,2.6,9.1-0.1,1.3-1.7,15.2-1.3,15.3,2.6,0.7,4.9,2.2,7.3,3.3,7.4,3.4,15.9,2.9,23.8,4.6,4.8,1,9.3,2.9,14.1,3.8a70.6,70.6,0,0,0,9.1.9c34,1.7,68,3.4,102,1.9a240.1,240.1,0,0,1-1-41.7" transform="translate(-350.7 -270.3)" fill="none" stroke="#190d0d" stroke-miterlimit="10"/><path d="M408.3,481.3a115.8,115.8,0,0,1,6.4-40.1" transform="translate(-350.7 -270.3)" fill="none"/>
<path d="M418.3,425.3a16.1,16.1,0,0,1,4.6,1.2c6.3,2.2,13.1,2.4,19.7,2.5,3.6,0,7.5,0,10.6-1.9" transform="translate(-350.7 -270.3)" fill="none" stroke="#161010" stroke-miterlimit="10"/>
<path d="M418.3,425.3" transform="translate(-350.7 -270.3)" fill="none" stroke="#161010" stroke-miterlimit="10"/>
<path d="M414.8,442.5c6.1,2.8,13,3.6,19.7,4.5s11.5,1.4,17.2.7c8.3-1,16.1-4.7,23.7-8.4" transform="translate(-350.7 -270.3)" fill="none" stroke="#191717" stroke-miterlimit="10"/>
<path d="M373.1,362.3c1.1,1.9,2.2,3.8,3.4,5.7a79.6,79.6,0,0,0,48.1,34.3" transform="translate(-350.7 -270.3)" fill="none" stroke="#140a0a" stroke-miterlimit="10"/>
<path d="M562.1,518.7c1.2,9.3,3.9,18.3,6.6,27.2,4.3,14.4,8.8,28.9,16.7,41.7-3.6,0-7,1.9-10,3.8-4.7,2.9-9.7,6.1-11.7,11.3A242.8,242.8,0,0,1,540,544.2c-14.6,2.8-29.6.4-44.4-1.3q-24.7-2.8-49.6-3.2c4.1,19,19.6,34,23.5,53.1-4.2.3-8.4,0.5-12.4,2s-7.6,4.2-9.1,8.1c-9.5-24.5-24.2-46.7-39.2-68.2-2.4-3.5-4.9-7.1-5.7-11.2s0.2-8.7,1.2-13l3.2-13.4" transform="translate(-350.7 -270.3)" fill="none" stroke="#140a0a" stroke-miterlimit="10"/>
<path d="M469.7,591.4c0.7,10.7,3.7,21.2,5.6,31.7s2.5,21.8-1.4,31.8c-0.5,1.3-1.1,2.6-1.7,3.9l-7,15.1c-3.5,7.6-7.1,15.3-12.6,21.7a5.2,5.2,0,0,1-2.1,1.7c-1.4.5-2.8-.2-4.1-0.8l-5.5-2.7c-1.5-.7-3.1-1.6-3.5-3.2s0.3-3,1-4.3c7.4-14,15.5-27.9,19.3-43.3a135.7,135.7,0,0,0,3.2-21.3c0.8-9.1.9-19.3-5.1-26.3" transform="translate(-350.7 -270.3)" fill="none" stroke="#191010" stroke-miterlimit="10"/>
<path d="M585.2,586.9L604.5,622l2.8,5,6.5,11.9,4.9,9,6.5,11.9c3.3,6.1,6.7,12.2,9.9,18.3,1.3,2.5,2.3,6,4.8,7.1s6.1,0.3,8.9,1.5,5.7,4,5.9,7.3a9.3,9.3,0,0,1-.5,3.3c-1.7,5.4-6.3,9.4-10.9,12.8s-10.8,7.1-16.9,6.2a8.1,8.1,0,0,1-4.8-2.3c-2.5-2.7-2-6.9-1.1-10.5s3.2-6.4,3.7-9.3-2.1-5.9-3.6-8.5l-11.1-19.5-9.3-16.4-4.8-8.4-8.4-14.7c-6.1-10.7-12.2-21.4-17.4-32.5" transform="translate(-350.7 -270.3)" fill="none" stroke="#191010" stroke-miterlimit="10"/>

<g class="left-foot">
	<path d="M443.5,705.1a2.4,2.4,0,0,1,1.8,3.6l-1.5,5.1,16.7,3.1c3.8,0.7,7.9,1.5,10.9,4s4.5,7.3,2.1,10.4-4.9,2.9-7.8,3.2a114,114,0,0,1-25.4,0c-4.6-.5-9.4-1.4-13.2-3.9s-6.8-7.1-6-11.7a18.6,18.6,0,0,1,1.8-4.9c1.4-3,4.2-12.8,7.5-13.9S440.7,703.9,443.5,705.1Z" transform="translate(-350.7 -270.3)" fill="#070101" stroke="#191010" stroke-miterlimit="10"/>
</g>

<path d="M440.7,679.9a26.2,26.2,0,0,0-8,1.1,10.2,10.2,0,0,0-6.1,5c-1.8,3.8-.1,8.5,2.9,11.4s7.1,4.5,11,5.8,7.5,2.5,11.5,2.3a16.1,16.1,0,0,0,7.8-2.5,6.1,6.1,0,0,0,1.5-1.2,5.8,5.8,0,0,0,1.1-2.5,12.8,12.8,0,0,0-4-12" transform="translate(-350.7 -270.3)" fill="none" stroke="#fff" stroke-miterlimit="10"/>
<g class="face-eyes">
	<ellipse cx="192.9" cy="85.7" rx="57.1" ry="43.3" fill="none" stroke="#0f0909" stroke-miterlimit="10"/>
	<ellipse cx="185.9" cy="55.7" rx="4.7" ry="5.8" fill="#020101" stroke="#0f0909" stroke-miterlimit="10"/>
	<ellipse cx="228.8" cy="77.1" rx="4.7" ry="5.8" fill="#070101" stroke="#0f0909" stroke-miterlimit="10"/>
</g>
<path d="M548.4,351.5c5.8,2.7,13.9,1.1,19.8,3.1,4.3,1.5,8.4,5,8.7,9.6s-2.5,7.8-5.6,10.4a31.5,31.5,0,0,1-7.8,4.8c-6.3,2.7-13.3,3.3-20.1,3.8a37.7,37.7,0,0,1-7.5.1c-4.7-.6-8.9-2.8-13-5.1-2.5-1.3-5-2.7-6.9-4.9s-3.4-6.9-4-10.7-0.9-8.5.7-12.4c2.7-6.5,10.3-9.9,17.4-9.8,4.7,0.1,8.9,3.9,11.8,7.3a2.8,2.8,0,0,1,.7,1.3c0.2,1.1-.9,2-1.8,2.6s-3.7,2.3-5.8,2.5a2.3,2.3,0,0,1-1.5-.3,2.8,2.8,0,0,1-1-1.8c-0.9-3.6-.8-10,4.5-9.8,3.8,0.1,8.2,6.2,9.3,9.5,1.6,5-.2,9.3,7.1,9a5.9,5.9,0,0,0,2.7-.5c2-1.1,2-3.8,1.7-6.1a34.1,34.1,0,0,0-10.2-2.2v1.7" transform="translate(-350.7 -270.3)" fill="none" stroke="#230b0b" stroke-miterlimit="10"/>
<path d="M563.7,356a10.4,10.4,0,0,1,7.4,1.9,2.5,2.5,0,0,1,1.2,1.9,2.8,2.8,0,0,1-.7,1.4,12,12,0,0,1-2.9,3.1,4.1,4.1,0,0,1-4,.4c-1.7-.9-2.1-3-2.4-4.8a5.3,5.3,0,0,1,.1-2.8,1.8,1.8,0,0,1,2.3-1.1" transform="translate(-350.7 -270.3)" fill="none" stroke="#110303" stroke-miterlimit="10"/>
<path d="M511.7,356.8c5.7-1.1,11.1,2.3,15.9,5.6a12.9,12.9,0,0,1,2.2,1.7,11.6,11.6,0,0,1,2.4,5.4,50.8,50.8,0,0,1,1.2,13.4l-1-.6" transform="translate(-350.7 -270.3)" fill="none" stroke="#160707" stroke-miterlimit="10"/><path d="M766,513.1c0.8,3.2-2.4,6.7-5.4,5.9s-3.4-2.4-4.1-4.4a20.8,20.8,0,0,1-.7-6.4c0-5.4.3-11.5,4.1-15" transform="translate(-350.7 -270.3)" fill="none" stroke="#1e1a1a" stroke-miterlimit="10"/>
<path d="M780.9,461a120.6,120.6,0,0,1,61.9-22.2c22.6-1.5,46.6,4,63.2,19.3s23.1,36.3,27.7,57.3,7.5,43.6,4.5,65.3-12.1,43.1-28.2,58.2c-6,5.6-12.8,10.2-19.2,15.4-26,21.1-43.1,50.6-61.5,78.5-3,4.5-6.7,9.5-12.1,10.1s-10.7-3.8-14.4-8.2-8.5-11.5-8-18.3c7.3-3.4,17-.5,21.3,6.3-0.9-1.5,9.5-15.1,10.7-17l6.1-8.8c3.1-4.5,3.1-3.6.5-7.6s-7.3-8.2-9.7-13.7a72.6,72.6,0,0,1-5.1-17.5c-0.4-2.5-.9-5.2-2.4-7.3a18.1,18.1,0,0,0-4.7-4,92.8,92.8,0,0,1-36.1-49.1" transform="translate(-350.7 -270.3)" fill="none" stroke="#0c0202" stroke-miterlimit="10"/>
<path d="M872,567c-1.9,3.5-6.2,4.8-9.1,7.4-0.9.9-1.7,1.9-2.6,2.8a29.7,29.7,0,0,1-4.8,4c-12,8.3-27.3,11.1-41.8,9.4-35.7-4.2-61.8-28.8-85.8-53.1a33.1,33.1,0,0,0-8.2-6.6c-3.1-1.6-7-2.2-10.2-.8s-5.3,5.3-7,8.5a16.1,16.1,0,0,0-2.5,8.1c0.1,2.9,1.6,5.8,4.3,6.9s5,0,5.7-2.2c-1.5,2.5,1.2,5.6,4,6.2s5.8-.4,8.6-0.2c4.5,0.4,8.2,3.5,11.6,6.5C758.5,585,785,606.2,816.8,611c7,1,14.3,1.2,20.9-1.1a58.1,58.1,0,0,0,9.1-4.4l16.5-9.2c6.3-3.5,13-7.4,16.2-13.9" transform="translate(-350.7 -270.3)" fill="none" stroke="#161111" stroke-miterlimit="10"/>
<path d="M783.1,613.5a81.4,81.4,0,0,1-35.6,13.9c-3.3.4-7,.8-9.5,3.1a11.2,11.2,0,0,0,11.1,3.9c-0.9,1.3-2.8,1.4-4.4,1.2s-3.2-.6-4.7,0-2.2,2.9-1,3.8a3.2,3.2,0,0,0,1.6.4,78.9,78.9,0,0,0,8.4.2,26.6,26.6,0,0,0-8.8.6,2.7,2.7,0,0,0-1.8,1.1c-0.8,1.5,1.5,2.8,3.2,3.1,8,1.2,16.5,2.4,24.1-.4,3.9-1.4,7.4-3.9,10.8-6.3L792,627.3" transform="translate(-350.7 -270.3)" fill="none" stroke="#050404" stroke-miterlimit="10"/>
<path d="M849.6,683.5a4.6,4.6,0,0,0,2.1-1.2,149.6,149.6,0,0,0,19.3-20c2-2.5,3.9-5.3,4-8.5q-17.8.6-35.7,0.7c-0.3,8.1,2.7,15.9,6.7,22.9A51.3,51.3,0,0,0,849.6,683.5Z" transform="translate(-350.7 -270.3)" fill="none" stroke="#110d0d" stroke-miterlimit="10"/>
<path d="M917.1,630.7c13.7,0.9,27.5-10.2,34.6-22.9-2.5,3.2-3.8,6.3,0,0-2.5,3.2-9.2,4.5-12.8,6s-8.9,3.8-13.7,4.6" transform="translate(-350.7 -270.3)" fill="none" stroke="#191616" stroke-miterlimit="10" stroke-width="0.75"/>
<path d="M889.5,478.5c0.7,4-1.2,8.7,1.1,12.1a9.1,9.1,0,0,0,2.8,2.4,24.7,24.7,0,0,0,14.1,3.7,6.6,6.6,0,0,0,2.8-.6c2.2-1.2,2.7-4.1,2.8-6.6a65.3,65.3,0,0,0-.8-12.5" transform="translate(-350.7 -270.3)" fill="none" stroke="#141313" stroke-miterlimit="10"/>
<path d="M829.9,486.9c-1-7.4-1.8-15.5,2.4-21.6,3-4.4,8-6.9,13-8.7a37.1,37.1,0,0,1,14-2.6c4.8,0.2,9.6,1.9,12.9,5.4s4.4,7.3,5.5,11.4c2.2,8.1,3.2,17.8-2.7,23.8-3.3,3.4-8.1,4.8-12.6,6.1a9.7,9.7,0,0,1-4,.5,3.3,3.3,0,0,1-2.9-2.5,18.1,18.1,0,0,0,11.9-11,30.7,30.7,0,0,0,1.4-10.9,22.9,22.9,0,0,0-1.3-8.5c-3-7.4-12.1-10.3-20.1-9.9-4.4.2-8.9,1.2-12.3,3.9-6.4,5.3-6.7,15-5.4,23.2a3.6,3.6,0,0,0,.6,1.7,3.8,3.8,0,0,0,2,1A73.4,73.4,0,0,1,857,501" transform="translate(-350.7 -270.3)" fill="none" stroke="#161313" stroke-miterlimit="10"/>
<path d="M849.5,703.4c4.5,0.5,9.2,1.6,12.8,4.3s5.9,7.7,4.5,12a5,5,0,0,1-.9,1.7,10.8,10.8,0,0,1-2.8,1.9,8.2,8.2,0,0,0-3.9,5.6,5.9,5.9,0,0,0,2.9,6,9.8,9.8,0,0,0,3.8.8c3.4,0.3,6.9.4,9.9-1.1,5.3-2.7,7-9.4,8-15.3s1.7-12.7-1.2-18.1a14.6,14.6,0,0,0-11-7.3c-2.6-.3-5.3.2-8,0s-5.5-1.1-6.9-3.4" transform="translate(-350.7 -270.3)" fill="none" stroke="#110c0c" stroke-miterlimit="10"/><path d="M766,514v32.9c0,4.8,0,9.7,1.3,14.3s3.8,9,3.6,13.8" transform="translate(-350.7 -270.3)" fill="none" stroke="#110c0c" stroke-miterlimit="10"/>
<path d="M829.1,513.9a52.8,52.8,0,0,0,24.8,20.3c3.5,1.3,7.8,2,10.3-.9a10.4,10.4,0,0,0,2-4.6c2.2-9.7-.4-20.6-6.6-27.8" transform="translate(-350.7 -270.3)" fill="none" stroke="#070404" stroke-miterlimit="10"/>
<path d="M808.8,517.8" transform="translate(-350.7 -270.3)" fill="none" stroke="#070404" stroke-miterlimit="10"/>
<path d="M829.7,487.5c-17.2-2.7-32.3,1.3-44,15-9.5,11.1-14.7,25.8-15.6,40.6-0.3,4-.1,8.3,2.3,11.4,4.2,5.7,13.4,4.3,18.2-.8s6.4-12.5,7.7-19.5l2.1-10.9" transform="translate(-350.7 -270.3)" fill="none" stroke="#070404" stroke-miterlimit="10"/>
<path d="M843.6,529.2a57.6,57.6,0,0,1-.9,9.7c-0.9,4.9-2.5,9.9-6,13.3a23,23,0,0,1-9.2,5.1,19.7,19.7,0,0,1-6.9,1.2c-4.5-.2-8.6-2.9-11.6-6.3s-4.9-7.6-6.9-11.7l-3.2-6.8" transform="translate(-350.7 -270.3)" fill="none" stroke="#110c0c" stroke-miterlimit="10"/>
<path d="M843.6,529.2" transform="translate(-350.7 -270.3)" fill="none" stroke="#110c0c" stroke-miterlimit="10"/>
<path d="M825.9,516.2c-3,2-6.5,3-9.9,4.1l-5.1,1.5c-3.5,1-7.2,2.1-10.9,1.4,0.5,0.8,0,5.7.7,6.4a5.9,5.9,0,0,0,2.8,1.9c1.8,0.4,3.8-.8,4.8-2.4a14.5,14.5,0,0,0,1.7-5.7,10.8,10.8,0,0,0,1.9,5.4c2.3,0.5,5.1.7,6.4-1.4a6.7,6.7,0,0,0,.7-3.2l0.3-5.6c-0.6,3.6,3,7.2,6.3,6.4a3,3,0,0,0,2.3-2C828.2,521.6,824.7,516.7,825.9,516.2Z" transform="translate(-350.7 -270.3)" fill="none" stroke="#050101" stroke-miterlimit="10"/>
<path d="M830.9,555.9c-1-8,1.9-15.9,4.7-23.1a10.8,10.8,0,0,1,2.3-4c1.6-1.4,2,.1,3.7-1.1" transform="translate(-350.7 -270.3)" fill="none" stroke="#070606" stroke-miterlimit="10"/>
<g class="nose">
	<ellipse cx="811.6" cy="506.5" rx="20" ry="8.2" transform="translate(-417.1 -143.7) rotate(-8.6)" fill="#0a0101" stroke="#0a0707" stroke-miterlimit="10"/>
</g>
<g class="right-arm">
	<path d="M782.1,506.9a11.3,11.3,0,0,1-9.4-.3,24.6,24.6,0,0,1-7.6-6,33.2,33.2,0,0,1-3.6-4.5,22.3,22.3,0,0,1-2.5-18.6,22.8,22.8,0,0,1,12.8-13.9c5.6-2.4,12-2.4,18.1-1.7s9.7,1.7,13.2,4.8c5.4,4.9,5.8,13.1,5.7,20.4a52.3,52.3,0,0,0-9.5,4.6,27.4,27.4,0,0,0-5.6-20.5,14.1,14.1,0,0,0-2.5-2.5c-2.4-1.8-5.5-2.4-8.5-3a33.6,33.6,0,0,0-8.8-.8,16.8,16.8,0,0,0-14.1,10.8,1.2,1.2,0,0,0,0,1.2" transform="translate(-350.7 -270.3)" fill="none" stroke="#070303" stroke-miterlimit="10"/>
	<path d="M626.6,437.3c4.5,1.1,6.3,6.6,6.8,11.3a52.6,52.6,0,0,1-9.2,34.4" transform="translate(-350.7 -270.3)" fill="none" stroke="#070202" stroke-miterlimit="10"/>
	<path d="M639.4,423.2c9.7,7.4,12.3,21,11.1,33.1a75.3,75.3,0,0,1-10.7,32.2l-0.5-1.8" transform="translate(-350.7 -270.3)" fill="none" stroke="#0f0808" stroke-miterlimit="10"/>
	<path d="M629.2,506.6a306,306,0,0,1-12.1,30c-0.9,2-2.7,4.4-4.8,3.7s-2-3.5-1.5-5.5a26.5,26.5,0,0,1,4-8.5l-2.6,8.8a10.8,10.8,0,0,1-2.2,4.6c-1.2,1.2-3.3,1.8-4.7.8a21.4,21.4,0,0,1,3.1-13.5,18.1,18.1,0,0,1-8.1,12.1c-2.1-5,1.3-10.5,4-15.3,4-7.1,6.6-14.8,9.1-22.5" transform="translate(-350.7 -270.3)" fill="none" stroke="#0f0808" stroke-miterlimit="10"/>
</g>

<path d="M415.3,441.5q-4.7,21.1-8,42.5" transform="translate(-350.7 -270.3)" fill="none" stroke="#140d0d" stroke-miterlimit="10"/>
<path d="M425.2,402.5c-3.9,12.7-6.9,25.3-9.9,38.9" transform="translate(-350.7 -270.3)" fill="none" stroke="#140d0d" stroke-miterlimit="10"/><path d="M426,400.1l-0.8,2.5" transform="translate(-350.7 -270.3)" fill="none" stroke="#140d0d" stroke-miterlimit="10"/><path d="M436.1,364.7c0.5,6.8-2.1,13.4-4.6,19.7s-3.8,10.5-5.5,15.7" transform="translate(-350.7 -270.3)" fill="none" stroke="#140d0d" stroke-miterlimit="10"/>
<path d="M564.5,454.3l2.5-8" transform="translate(-350.7 -270.3)" fill="none" stroke="#fff" stroke-miterlimit="10"/>
<path d="M567.4,445.7a18.6,18.6,0,0,1-2.3,9.2" transform="translate(-350.7 -270.3)" fill="none" stroke="#110e0e" stroke-miterlimit="10"/><line x1="69.7" y1="149.6" x2="69.7" y2="149.6" fill="none" stroke="#161010" stroke-miterlimit="10"/>
<g class="right-foot">
<path d="M632.6,716.5q7.1,10.8,14.5,21.5c2.5-.2,4.7-1.7,6.7-3.2A332.7,332.7,0,0,0,686,708.5c3.6-3.3,7.3-7.3,7.3-12.2a30.1,30.1,0,0,0-34.5,6.1c-1.6,1.7-3,3.5-4.9,4.7s-4.6,1.6-6.4.1" transform="translate(-350.7 -270.3)" fill="#070101" stroke="#fff" stroke-miterlimit="10"/>
</g>
<path d="M623.9,691.3c-0.2,5.1,2,11.4,7.1,12.1s7.5-2.5,8.8-6.1,1-7.6.7-11.5c-0.1-.8-1-1.8-1.4-1.1" transform="translate(-350.7 -270.3)" fill="none" stroke="#140303" stroke-miterlimit="10"/>
<path d="M450.8,697.1a54.5,54.5,0,0,1,8.9,4.5c1.5,0.9,3.1,2.6,2.2,4.1-7.3.5-14.8,1.1-21.8-1a60.7,60.7,0,0,1-9.4-4,16.4,16.4,0,0,1-5.2-3.5,5.6,5.6,0,0,1-1.3-5.8,18.3,18.3,0,0,1,13.2-1.6" transform="translate(-350.7 -270.3)" fill="none" stroke="#1c1717" stroke-miterlimit="10"/><path d="M835.1,693.6a26,26,0,0,1,13.9-10" transform="translate(-350.7 -270.3)" fill="none" stroke="#1c1717" stroke-miterlimit="10"/>
</g>
</svg>